<?xml version="1.0" encoding="UTF-8" standalone="no"?>
<!DOCTYPE svg PUBLIC "-//W3C//DTD SVG 1.1//EN"
 "http://www.w3.org/Graphics/SVG/1.1/DTD/svg11.dtd">
<!-- Generated by graphviz version 2.38.0 (20140413.2041)
 -->
<!-- Title: models_diagram Pages: 1 -->
<svg width="424pt" height="243pt"
 viewBox="0.00 0.00 424.34 243.00" xmlns="http://www.w3.org/2000/svg" xmlns:xlink="http://www.w3.org/1999/xlink">
<g id="graph0" class="graph" transform="scale(1 1) rotate(0) translate(4 239)">
<title>models_diagram</title>
<polygon fill="none" stroke="none" points="-4,4 -4,-239 420.343,-239 420.343,4 -4,4"/>
<!-- Post -->
<g id="node1" class="node"><title>Post</title>
<path fill="none" stroke="black" d="M12,-143.5C12,-143.5 232,-143.5 232,-143.5 238,-143.5 244,-149.5 244,-155.5 244,-155.5 244,-222.5 244,-222.5 244,-228.5 238,-234.5 232,-234.5 232,-234.5 12,-234.5 12,-234.5 6,-234.5 0,-228.5 0,-222.5 0,-222.5 0,-155.5 0,-155.5 0,-149.5 6,-143.5 12,-143.5"/>
<text text-anchor="middle" x="122" y="-219.3" font-family="Times,serif" font-size="14.00">Post</text>
<polyline fill="none" stroke="black" points="0,-211.5 244,-211.5 "/>
<text text-anchor="start" x="8" y="-196.3" font-family="Times,serif" font-size="14.00">id :integer</text>
<text text-anchor="start" x="8" y="-181.3" font-family="Times,serif" font-size="14.00">content :text</text>
<text text-anchor="start" x="8" y="-166.3" font-family="Times,serif" font-size="14.00">created_at :timestamp without time zone</text>
<text text-anchor="start" x="8" y="-151.3" font-family="Times,serif" font-size="14.00">updated_at :timestamp without time zone</text>
</g>
<!-- Comentario -->
<g id="node3" class="node"><title>Comentario</title>
<path fill="none" stroke="black" d="M12,-0.5C12,-0.5 232,-0.5 232,-0.5 238,-0.5 244,-6.5 244,-12.5 244,-12.5 244,-94.5 244,-94.5 244,-100.5 238,-106.5 232,-106.5 232,-106.5 12,-106.5 12,-106.5 6,-106.5 0,-100.5 0,-94.5 0,-94.5 0,-12.5 0,-12.5 0,-6.5 6,-0.5 12,-0.5"/>
<text text-anchor="middle" x="122" y="-91.3" font-family="Times,serif" font-size="14.00">Comentario</text>
<polyline fill="none" stroke="black" points="0,-83.5 244,-83.5 "/>
<text text-anchor="start" x="8" y="-68.3" font-family="Times,serif" font-size="14.00">id :integer</text>
<text text-anchor="start" x="8" y="-53.3" font-family="Times,serif" font-size="14.00">content :text</text>
<text text-anchor="start" x="8" y="-38.3" font-family="Times,serif" font-size="14.00">post_id :integer</text>
<text text-anchor="start" x="8" y="-23.3" font-family="Times,serif" font-size="14.00">created_at :timestamp without time zone</text>
<text text-anchor="start" x="8" y="-8.3" font-family="Times,serif" font-size="14.00">updated_at :timestamp without time zone</text>
</g>
<!-- Post&#45;&gt;Comentario -->
<g id="edge1" class="edge"><title>Post&#45;&gt;Comentario</title>
<path fill="none" stroke="#47caa3" d="M122,-135.111C122,-129.148 122,-123.03 122,-116.96"/>
<ellipse fill="none" stroke="#47caa3" cx="122" cy="-139.175" rx="4" ry="4"/>
<polygon fill="#47caa3" stroke="#47caa3" points="122,-116.824 126.5,-106.824 122,-111.824 122,-106.824 122,-106.824 122,-106.824 122,-111.824 117.5,-106.824 122,-116.824 122,-116.824"/>
</g>
<!-- ApplicationRecord -->
<g id="node2" class="node"><title>ApplicationRecord</title>
<ellipse fill="none" stroke="black" cx="339" cy="-189" rx="77.1866" ry="18"/>
<text text-anchor="middle" x="339" y="-185.3" font-family="Times,serif" font-size="14.00">ApplicationRecord</text>
</g>
</g>
</svg>
